<svg width="10" height="14" viewBox="0 0 10 14" fill="none" xmlns="http://www.w3.org/2000/svg">
<path fill-rule="evenodd" clip-rule="evenodd" d="M9.83728 7.38509C10.0542 7.60205 10.0542 7.95381 9.83728 8.17077L5.39284 12.6152C5.28768 12.7204 5.15086 12.7746 5.01307 12.7778L8.61111 12.7778C8.91794 12.7778 9.16667 13.0265 9.16667 13.3333C9.16667 13.6402 8.91794 13.8889 8.61111 13.8889L1.38889 13.8889C1.08206 13.8889 0.833332 13.6402 0.833332 13.3333C0.833332 13.0265 1.08206 12.7778 1.38889 12.7778L4.98693 12.7778C4.84914 12.7746 4.71232 12.7204 4.60716 12.6152L0.162717 8.17077C-0.0542405 7.95381 -0.0542405 7.60205 0.162717 7.38509C0.379676 7.16813 0.731434 7.16813 0.948391 7.38509L4.44444 10.8811L4.44444 0.555555C4.44444 0.24873 4.69317 -2.31969e-07 5 -2.18557e-07C5.30682 -2.38259e-07 5.55555 0.24873 5.55555 0.555555L5.55555 10.8811L9.05161 7.38509C9.26856 7.16814 9.62032 7.16814 9.83728 7.38509Z" fill="#4F5964"/>
</svg>
